<svg width="12" height="9" viewBox="0 0 12 9" fill="none" xmlns="http://www.w3.org/2000/svg">
<g clip-path="url(#clip0_688_2273)">
<path fill-rule="evenodd" clip-rule="evenodd" d="M11.8546 0.645917C11.9012 0.692363 11.9381 0.747538 11.9633 0.808284C11.9886 0.869029 12.0015 0.93415 12.0015 0.999917C12.0015 1.06568 11.9886 1.13081 11.9633 1.19155C11.9381 1.2523 11.9012 1.30747 11.8546 1.35392L4.85463 8.35392C4.80819 8.40048 4.75301 8.43742 4.69227 8.46263C4.63152 8.48784 4.5664 8.50081 4.50063 8.50081C4.43486 8.50081 4.36974 8.48784 4.309 8.46263C4.24825 8.43742 4.19308 8.40048 4.14663 8.35392L0.646631 4.85392C0.552745 4.76003 0.5 4.63269 0.5 4.49992C0.5 4.36714 0.552745 4.2398 0.646631 4.14592C0.740518 4.05203 0.867856 3.99929 1.00063 3.99929C1.13341 3.99929 1.26075 4.05203 1.35463 4.14592L4.50063 7.29292L11.1466 0.645917C11.1931 0.599354 11.2483 0.562411 11.309 0.537205C11.3697 0.511998 11.4349 0.499023 11.5006 0.499023C11.5664 0.499023 11.6315 0.511998 11.6923 0.537205C11.753 0.562411 11.8082 0.599354 11.8546 0.645917Z" fill="white"/>
</g>
<defs>
<clipPath id="clip0_688_2273">
<rect width="12.0009" height="9" fill="white"/>
</clipPath>
</defs>
</svg>
